PathFileType	4	(X/Y/Z)	anato.trc
DataRate	CameraRate	NumFrames	NumMarkers	Units	OrigDataRate	OrigDataStartFrame	OrigNumFrames
100.0	100.0	4	17	mm	100.0	464	618
Frame#	Time	STER			XIPH			T10			T1			CLAV_SC			CLAV_AC			SCAP_AA			SCAP_CP			SCAP_TS			SCAP_IA			DELT			ARMl			EPICm			EPICl			LARM_elb			STYLr			STYLu		
		X1	Y1	Z1	X2	Y2	Z2	X3	Y3	Z3	X4	Y4	Z4	X5	Y5	Z5	X6	Y6	Z6	X7	Y7	Z7	X8	Y8	Z8	X9	Y9	Z9	X10	Y10	Z10	X11	Y11	Z11	X12	Y12	Z12	X13	Y13	Z13	X14	Y14	Z14	X15	Y15	Z15	X16	Y16	Z16	X17	Y17	Z17

464	4.63	387.8257751464844	48.13994598388672	1435.00927734375	388.0537109375	100.24723815917969	1271.271240234375	372.24261474609375	-130.2738037109375	1240.7476806640625	367.1002502441406	-108.21393585205078	1473.26611328125	423.57977294921875	40.366756439208984	1440.02001953125	572.3955078125	-37.16256332397461	1459.231201171875	574.6951904296875	-83.40953063964844	1443.2529296875	519.2333374023438	-87.9694595336914	1474.108642578125	499.6864929199219	-143.23548889160156	1421.0396728515625	477.794189453125	-154.72804260253906	1281.8319091796875	648.3506469726562	-66.82032012939453	1314.8084716796875	664.8905639648438	-79.43534088134766	1269.24755859375	667.1138305664062	-23.342140197753906	1110.2406005859375	729.7819213867188	-87.89109802246094	1166.297119140625	681.2437744140625	-68.70275115966797	1102.96484375	930.68505859375	11.690299034118652	997.2547607421875	862.9506225585938	14.570209503173828	948.5309448242188
465	4.64	388.0096435546875	48.196205139160156	1435.0281982421875	388.0442810058594	100.36265563964844	1271.3258056640625	372.26617431640625	-130.21896362304688	1240.68701171875	367.10101318359375	-108.25812530517578	1473.194580078125	423.6438903808594	40.39189910888672	1440.05419921875	572.4078369140625	-37.169898986816406	1459.184326171875	574.6971435546875	-83.41390991210938	1443.177978515625	519.2980346679688	-87.98654174804688	1474.0093994140625	499.7002258300781	-143.2151641845703	1420.9410400390625	477.8128356933594	-154.65335083007812	1281.74755859375	648.0794067382812	-66.81828308105469	1315.17431640625	664.911376953125	-79.29362487792969	1269.1832275390625	667.16064453125	-23.06966209411621	1110.283447265625	729.6300659179688	-87.67513275146484	1166.2432861328125	681.238525390625	-68.45771789550781	1102.8916015625	930.6590576171875	12.135184288024902	997.29345703125	862.9537353515625	14.984723091125488	948.5503540039062
466	4.65	387.87567138671875	48.183502197265625	1435.1041259765625	388.0664978027344	100.4704360961914	1271.3917236328125	372.2540588378906	-130.11410522460938	1240.643798828125	367.13232421875	-108.29374694824219	1473.0947265625	423.3250427246094	40.41749572753906	1440.2952880859375	572.4323120117188	-37.17692184448242	1459.168701171875	574.7099609375	-83.40763092041016	1443.11572265625	519.3330688476562	-88.01233673095703	1473.9500732421875	499.6644592285156	-143.2123565673828	1420.9046630859375	477.8157043457031	-154.57168579101562	1281.6527099609375	648.2473754882812	-66.63036346435547	1314.5760498046875	664.919921875	-79.17344665527344	1269.1090087890625	667.2603759765625	-22.744220733642578	1110.218017578125	729.8671875	-87.43319702148438	1166.1690673828125	681.2766723632812	-68.21517181396484	1102.8369140625	930.6506958007812	12.575968742370605	997.3473510742188	862.97998046875	15.377557754516602	948.5880126953125
467	4.66	387.9010314941406	48.17226028442383	1435.108642578125	388.0184020996094	100.55623626708984	1271.437255859375	372.2491149902344	-130.03746032714844	1240.5709228515625	367.12481689453125	-108.32415008544922	1473.0133056640625	423.2398376464844	40.370635986328125	1440.3236083984375	572.4522094726562	-37.18553924560547	1459.129638671875	574.785400390625	-83.40287780761719	1443.0411376953125	519.3936767578125	-88.02896118164062	1473.8753662109375	499.7099914550781	-143.20950317382812	1420.785888671875	477.9356689453125	-154.49473571777344	1281.4981689453125	648.1296997070312	-66.60215759277344	1315.090576171875	664.9397583007812	-79.01956939697266	1269.0501708984375	667.1560668945312	-22.60753631591797	1110.125	729.6680297851562	-87.21736907958984	1166.112060546875	681.271240234375	-67.96802520751953	1102.764404296875	931.014892578125	13.006829261779785	997.5443725585938	862.4866333007812	15.885433197021484	948.4004516601562
